# xmcd
#
# Track frame offsets:
#	150
#	18972
#	37197
#	50024
#	69692
#	85826
#	95831
#	113109
#	130976
#	152190
#	169889
#	192558
#
# Disc length: 2810 seconds
#
# Revision: 0
# Processed by: cddbd v1.5.2PL0 Copyright (c) Steve Scherf et al.
# Submitted via: dBpowerAMP V4.0
#
DISCID=ae0af80c
DTITLE=Olav Larson and tha Alabama Rodeo Stars - Love's come to Town
DYEAR=2007
DGENRE=Country
TTITLE0=May the Sun Always Shine
TTITLE1=Unhappy - Dreamer
TTITLE2=You can Call Me Baby
TTITLE3=You're the Only One
TTITLE4=Love's come to Town
TTITLE5=Ain't got time (intermission)
TTITLE6=We'll Never loose our Minds
TTITLE7=Give me your Love
TTITLE8=Like Daisies
TTITLE9=My Town
TTITLE10=The Sweet Saviour's Arms
TTITLE11=Atomic Bombs and Wine
EXTD=
EXTT0=
EXTT1=
EXTT2=
EXTT3=
EXTT4=
EXTT5=
EXTT6=
EXTT7=
EXTT8=
EXTT9=
EXTT10=
EXTT11=
PLAYORDER=
